# xmcd CD database file
#
# Track frame offsets:
#	150
#	36755
#	64415
#	109743
#	172863
#	214908
#
# Disc length: 3412 seconds
#
# Revision: 0
# Processed by: cddbd v1.5.1PL0 Copyright (c) Steve Scherf et al.
# Submitted via: CDex 1.51
#
DISCID=500d5206
DTITLE=The Torque-Tet - Walk In Space
DYEAR=1900
DGENRE=Jazz
TTITLE0=Cosmopolis
TTITLE1=Holiday Song
TTITLE2=Many Favors
TTITLE3=Box Launch
TTITLE4=In Princapolis
TTITLE5=Soft Medium
EXTD=
EXTT0=
EXTT1=
EXTT2=
EXTT3=
EXTT4=
EXTT5=
PLAYORDER=
